<?xml version="1.0" encoding="UTF-8"?>
<svg id="Layer_1" data-name="Layer 1" xmlns="http://www.w3.org/2000/svg" viewBox="0 0 352.56 48">
  <path d="M13.02,0h34.98v4.02H13.02c-2.48,0-4.6.88-6.36,2.64-1.76,1.76-2.64,3.88-2.64,6.36s.88,4.59,2.64,6.33c1.76,1.74,3.88,2.61,6.36,2.61h21.96c3.6,0,6.67,1.27,9.21,3.81,2.54,2.54,3.81,5.61,3.81,9.21s-1.27,6.67-3.81,9.21c-2.54,2.54-5.61,3.81-9.21,3.81H0v-4.02h34.98c2.48,0,4.6-.88,6.36-2.64,1.76-1.76,2.64-3.88,2.64-6.36s-.88-4.59-2.64-6.33c-1.76-1.74-3.88-2.61-6.36-2.61H13.02c-3.6,0-6.67-1.27-9.21-3.81-2.54-2.54-3.81-5.61-3.81-9.21S1.27,6.35,3.81,3.81,9.42,0,13.02,0Z"/>
  <path d="M60,4.02V0h48v4.02h-21.96v43.98h-4.08V4.02h-21.96Z"/>
  <path d="M168,13.02c0,2.28-.55,4.39-1.65,6.33-1.1,1.94-2.57,3.49-4.41,4.65,1.84,1.16,3.31,2.71,4.41,4.65,1.1,1.94,1.65,4.05,1.65,6.33v13.02h-4.02v-13.02c0-2.48-.88-4.59-2.64-6.33-1.76-1.74-3.88-2.61-6.36-2.61h-30.96v21.96h-4.02v-26.04h34.98c2.48,0,4.6-.87,6.36-2.61,1.76-1.74,2.64-3.85,2.64-6.33s-.88-4.6-2.64-6.36c-1.76-1.76-3.88-2.64-6.36-2.64h-34.98V0h34.98c3.6,0,6.67,1.27,9.21,3.81,2.54,2.54,3.81,5.61,3.81,9.21Z"/>
  <path d="M180,48L207,0l26.94,48h-4.92l-22.02-39.3-22.08,39.3h-4.92Z"/>
  <path d="M228.54,4.02V0h48v4.02h-21.96v43.98h-4.08V4.02h-21.96Z"/>
  <path d="M288.54,48V0h4.02v48h-4.02Z"/>
  <path d="M317.58,0h34.98v4.02h-34.98c-2.48,0-4.6.88-6.36,2.64-1.76,1.76-2.64,3.88-2.64,6.36s.88,4.59,2.64,6.33c1.76,1.74,3.88,2.61,6.36,2.61h21.96c3.6,0,6.67,1.27,9.21,3.81,2.54,2.54,3.81,5.61,3.81,9.21s-1.27,6.67-3.81,9.21c-2.54,2.54-5.61,3.81-9.21,3.81h-34.98v-4.02h34.98c2.48,0,4.6-.88,6.36-2.64s2.64-3.88,2.64-6.36-.88-4.59-2.64-6.33c-1.76-1.74-3.88-2.61-6.36-2.61h-21.96c-3.6,0-6.67-1.27-9.21-3.81-2.54-2.54-3.81-5.61-3.81-9.21s1.27-6.67,3.81-9.21c2.54-2.54,5.61-3.81,9.21-3.81Z"/>
</svg>